# xmcd CD database file
#
# Track frame offsets:
#	150
#	20641
#	37401
#	54769
#	72459
#	88048
#	101443
#	120500
#	132005
#	146321
#	168248
#	183433
#	202181
#	219255
#	237302
#	253432
#	272328
#	293458
#	311764
#
# Disc length: 4382 seconds
#
# Revision: 4
# Processed by: cddbd v1.5.1PL2 Copyright (c) Steve Scherf et al.
# Submitted via: CDex 1.51
#
DISCID=16111c13
DTITLE=The Shadows - Life Story [CD2]
DYEAR=2004
DGENRE=Oldies
TTITLE0=Mountains Of The Moon
TTITLE1=Moonlight Shadow
TTITLE2=You Win Again
TTITLE3=Memory (From 'Cats')
TTITLE4=I Guess That's Why They Call It The Blues
TTITLE5=Thing-Me-Jig
TTITLE6=Life Story
TTITLE7=Johnny Stacatto
TTITLE8=Summer Love '59
TTITLE9=Turning Point
TTITLE10=This Ole House
TTITLE11=Chariots Of Fire
TTITLE12=Crockett's Theme (From 'Miami Vice')
TTITLE13=Midnight Creepin'
TTITLE14=Going Home (Theme From 'Local Hero')
TTITLE15=Every Breath You Take
TTITLE16=Africa
TTITLE17=Walk Of Life
TTITLE18=Dancing In The Dark
EXTD=YEAR: 2004
EXTT0=
EXTT1=
EXTT2=
EXTT3=
EXTT4=
EXTT5=
EXTT6=
EXTT7=
EXTT8=
EXTT9=
EXTT10=
EXTT11=
EXTT12=
EXTT13=
EXTT14=
EXTT15=
EXTT16=
EXTT17=
EXTT18=
PLAYORDER=
